<svg width="42" height="42" viewBox="0 0 42 42" fill="none" xmlns="http://www.w3.org/2000/svg">
    <path fill-rule="evenodd" clip-rule="evenodd" d="M36.75 10.5H5.25V15.75C6.65446 15.75 7.35669 15.75 7.86114 16.0871C8.07952 16.233 8.26702 16.4205 8.41294 16.6389C8.75 17.1433 8.75 17.8455 8.75 19.25V30.75C8.75 33.5784 8.75 34.9926 9.62868 35.8713C10.5074 36.75 11.9216 36.75 14.75 36.75H27.25C30.0784 36.75 31.4926 36.75 32.3713 35.8713C33.25 34.9926 33.25 33.5784 33.25 30.75V19.25C33.25 17.8455 33.25 17.1433 33.5871 16.6389C33.733 16.4205 33.9205 16.233 34.1389 16.0871C34.6433 15.75 35.3455 15.75 36.75 15.75V10.5ZM17.625 19.25C17.625 18.6977 17.1773 18.25 16.625 18.25C16.0727 18.25 15.625 18.6977 15.625 19.25V28C15.625 28.5523 16.0727 29 16.625 29C17.1773 29 17.625 28.5523 17.625 28V19.25ZM26.375 19.25C26.375 18.6977 25.9273 18.25 25.375 18.25C24.8227 18.25 24.375 18.6977 24.375 19.25V28C24.375 28.5523 24.8227 29 25.375 29C25.9273 29 26.375 28.5523 26.375 28V19.25Z" fill="#828282"/>
    <path d="M17.6193 5.89853C17.8187 5.71248 18.2581 5.54807 18.8693 5.43082C19.4806 5.31356 20.2295 5.25 21 5.25C21.7705 5.25 22.5194 5.31356 23.1307 5.43082C23.7419 5.54807 24.1813 5.71248 24.3807 5.89853" stroke="#828282" stroke-width="2" stroke-linecap="round"/>
    <path d="M0 0V-1H-1V0H0ZM42 0H43V-1H42V0ZM42 42V43H43V42H42ZM0 42H-1V43H0V42ZM0 1H42V-1H0V1ZM41 0V42H43V0H41ZM42 41H0V43H42V41ZM1 42V0H-1V42H1Z" fill="#AFAFAF"/>
</svg>
