<svg width="64" height="64" viewBox="0 0 64 64" fill="none" xmlns="http://www.w3.org/2000/svg">
    <rect x="0.5" y="0.5" width="63" height="63" rx="8.5" fill="white" stroke="#AFAFAF"/>
    <path d="M40.25 47.5834H23.75" stroke="#AFAFAF" stroke-linecap="round"/>
    <path d="M31.5 46.6666C31.5 46.9428 31.7239 47.1666 32 47.1666C32.2761 47.1666 32.5 46.9428 32.5 46.6666H31.5ZM32.5 46.6666V39.3333H31.5V46.6666H32.5Z" fill="#AFAFAF"/>
    <path d="M38.4168 35.6667C38.4168 35.6667 44.8335 32.2157 44.8335 27.902C44.8335 26.0465 44.8335 24.5103 44.8335 23.3619C44.8335 23.0254 44.8335 22.8572 44.8132 22.7158C44.687 21.8369 43.9966 21.1465 43.1177 21.0203C42.9763 21 42.8077 21 42.4704 21V21C42.1125 21 41.9335 21 41.7862 21.022C40.8681 21.1595 40.1652 21.9108 40.0891 22.8361C40.0769 22.9845 40.0888 23.1631 40.1126 23.5202L40.2502 25.5833" stroke="#AFAFAF" stroke-linecap="round"/>
    <path d="M25.5312 35.9375L25.2539 36.3535L25.5312 35.9375ZM38.4688 35.9375L38.7462 36.3535L38.4688 35.9375ZM39.75 22.0834V32.6093H40.75V22.0834H39.75ZM24.25 32.6093V22.0834H23.25V32.6093H24.25ZM38.1915 35.5215L32.2774 39.4642L32.8321 40.2963L38.7462 36.3535L38.1915 35.5215ZM31.7227 39.4642L25.8086 35.5215L25.2539 36.3535L31.1679 40.2963L31.7227 39.4642ZM38.25 19.5834H25.75V20.5834H38.25V19.5834ZM32.2774 39.4642C32.1094 39.5762 31.8906 39.5762 31.7227 39.4642L31.1679 40.2963C31.6718 40.6322 32.3282 40.6322 32.8321 40.2963L32.2774 39.4642ZM23.25 32.6093C23.25 34.1139 24.002 35.5189 25.2539 36.3535L25.8086 35.5215C24.8349 34.8724 24.25 33.7795 24.25 32.6093H23.25ZM39.75 32.6093C39.75 33.7795 39.1651 34.8723 38.1915 35.5215L38.7462 36.3535C39.998 35.5189 40.75 34.1139 40.75 32.6093H39.75ZM24.25 22.0834C24.25 21.2549 24.9216 20.5834 25.75 20.5834V19.5834C24.3693 19.5834 23.25 20.7027 23.25 22.0834H24.25ZM40.75 22.0834C40.75 20.7027 39.6307 19.5834 38.25 19.5834V20.5834C39.0784 20.5834 39.75 21.2549 39.75 22.0834H40.75Z" fill="#AFAFAF"/>
    <path d="M25.5832 35.6667C25.5832 35.6667 19.1665 32.2157 19.1665 27.902C19.1665 26.0465 19.1665 24.5103 19.1665 23.3619C19.1665 23.0254 19.1665 22.8572 19.1868 22.7158C19.313 21.8369 20.0034 21.1465 20.8823 21.0203C21.0237 21 21.1923 21 21.5296 21V21C21.8875 21 22.0665 21 22.2138 21.022C23.1319 21.1595 23.8348 21.9108 23.9109 22.8361C23.9231 22.9845 23.9112 23.1631 23.8874 23.5202L23.7498 25.5833" stroke="#AFAFAF" stroke-linecap="round"/>
</svg>
